<svg width="24" height="24" viewBox="0 0 24 24" fill="none" xmlns="http://www.w3.org/2000/svg">
<path fill-rule="evenodd" clip-rule="evenodd" d="M12.7318 21C12.7318 21 10.4917 7.31212 21.9649 3C22.0025 3.09366 22.0378 3.18806 22.0694 3.2847C22.6848 5.03378 23.0215 6.92633 22.9989 8.77799C22.9801 10.0647 22.7705 11.3611 22.2633 12.5571C21.6283 14.0386 20.2095 14.6125 18.757 15.1462C18.3346 15.3001 17.9003 15.416 17.472 15.5543C16.6724 15.8145 15.8503 16.1571 15.4288 16.9257C15.4288 16.9257 15.5174 15.6264 18.119 13.128C18.119 13.128 19.8962 11.7469 20.2261 8.72744C20.2261 8.72744 14.8855 9.56221 12.7318 21Z" fill="#268B42"/>
<path fill-rule="evenodd" clip-rule="evenodd" d="M11.2685 21C11.2685 21 13.5086 7.31212 2.03535 3C1.99703 3.09366 1.96246 3.18806 1.93015 3.2847C1.31545 5.03378 0.975795 6.92633 1.00134 8.77799C1.02013 10.0647 1.22678 11.3611 1.73702 12.5571C2.372 14.0386 3.79 14.6125 5.24332 15.1462C5.66564 15.3001 6.09998 15.416 6.52756 15.5543C7.32786 15.8145 8.14995 16.1571 8.57152 16.9257C8.57152 16.9257 8.48285 15.6264 5.88055 13.128C5.88055 13.128 4.10411 11.7469 3.77422 8.72744C3.77422 8.72744 9.11407 9.56221 11.2685 21Z" fill="#268B42"/>
</svg>
