<svg width="24" height="24" viewBox="0 0 24 24" fill="none" xmlns="http://www.w3.org/2000/svg">
<path fill-rule="evenodd" clip-rule="evenodd" d="M2.00305 12.7144C2.00305 12.7144 8.7171 11.2032 9.1331 19.3435C9.1331 19.3435 2.76548 19.7347 2.00305 12.7144Z" fill="#89288F"/>
<path fill-rule="evenodd" clip-rule="evenodd" d="M12.2421 22.8122C12.2421 22.8122 7.80809 7.7096 19.9171 1.18781C19.9722 1.28923 20.0237 1.39283 20.0766 1.50006C21.018 3.40255 21.6703 5.51007 21.9059 7.62122C22.074 9.08974 22.0254 10.5945 21.6239 12.0203C21.1289 13.7909 19.6236 14.6349 18.0777 15.4311C17.6313 15.663 17.1624 15.8528 16.7065 16.0643C15.8557 16.4614 14.9925 16.9605 14.6352 17.8813C14.6352 17.8813 14.5468 16.4034 17.0769 13.2309C17.0769 13.2309 18.8612 11.4262 18.7938 7.95158C18.7938 7.95158 12.9763 9.64035 12.2421 22.8122Z" fill="#89288F"/>
</svg>
