<svg width="24" height="24" viewBox="0 0 24 24" fill="none" xmlns="http://www.w3.org/2000/svg">
<path fill-rule="evenodd" clip-rule="evenodd" d="M7.32575 22.5C7.32575 22.5 2.70339 7.83349 15.3313 1.5C15.3884 1.5985 15.4433 1.69911 15.4966 1.80324C16.4773 3.6508 17.1596 5.69747 17.4069 7.74765C17.579 9.17378 17.5301 10.6351 17.1115 12.0197C16.5945 13.7392 15.0239 14.5561 13.412 15.3321C12.9461 15.5572 12.4569 15.7416 11.9804 15.947C11.0959 16.3326 10.1942 16.8166 9.82368 17.7108C9.82368 17.7108 9.73125 16.2763 12.3712 13.1954C12.3712 13.1954 14.2304 11.4428 14.1612 8.06848C14.1612 8.06848 8.09377 9.70779 7.32575 22.5Z" fill="#DC5D5C"/>
</svg>
